{"title":"Shoot.On.Sight.2007.DVDRiP.XViD.AC3(5.1)Optional NordicSub.Zen_B","uid":5776769,"size":1485989199,"categoryP":"video","categoryS":"movies","magnet":"?xt=urn:btih:eb6e81a76306025ed7b0c2bde85563f5beb6e50f&amp;dn=Shoot.On.Sight.2007.DVDRiP.XViD.AC3%285.1%29Optional+NordicSub.Zen_B&amp;tr=udp%3A%2F%2Ftracker.openbittorrent.com%3A80&amp;tr=udp%3A%2F%2Fopen.demonii.com%3A1337&amp;tr=udp%3A%2F%2Ftracker.coppersurfer.tk%3A6969&amp;tr=udp%3A%2F%2Fexodus.desync.com%3A6969","seeders":0,"leechers":0,"uploader":"Zen_Bud","files":-1,"time":1282291518,"description":"General\nComplete name                    : Shoot On Sight.avi\nFormat                           : AVI\nFile size                        : 1.37 GiB\nDuration                         : 1h 49mn\nOverall bit rate                 : 1 786 Kbps\n\nVideo\n\nFormat                           : MPEG-4 Visual\nCodec ID/Hint                    : XviD\nDuration                         : 1h 49mn\nBit rate                         : 1 327 Kbps\nWidth                            : 706 pixels\nHeight                           : 572 pixels\nDisplay aspect ratio             : 16:9\nStream size                      : 1.02 GiB (74%)\nWriting library                  : XviD 1.1.2 (UTC 2006-11-01)\n\nAudio\n\nFormat                           : AC-3\nDuration                         : 1h 49mn\nBit rate                         : 448 Kbps\nChannel(s)                       : 6 channels\nChannel positions                : Front: L C R, Side: L R, LFE\nSampling rate                    : 48.0 KHz\nStream size                      : 352 MiB (25%)\n\n\n","torrent":{"xt":"urn:btih:eb6e81a76306025ed7b0c2bde85563f5beb6e50f","amp;dn":"Shoot.On.Sight.2007.DVDRiP.XViD.AC3%285.1%29Optional+NordicSub.Zen_B","amp;tr":["udp%3A%2F%2Ftracker.openbittorrent.com%3A80","udp%3A%2F%2Fopen.demonii.com%3A1337","udp%3A%2F%2Ftracker.coppersurfer.tk%3A6969","udp%3A%2F%2Fexodus.desync.com%3A6969"],"infoHash":"eb6e81a76306025ed7b0c2bde85563f5beb6e50f","infoHashBuffer":{"type":"Buffer","data":[235,110,129,167,99,6,2,94,215,176,194,189,232,85,99,245,190,182,229,15]},"announce":[],"urlList":[]}}